<svg width="1050" height="398" viewBox="0 0 1050 398" fill="none" xmlns="http://www.w3.org/2000/svg">
<path d="M64.15 119.271H90.3934V158.389H64.15V252.362H16.744V158.389H0.0212402V119.271H16.744V112.068C16.744 85.5289 35.292 67.0303 61.8315 67.0303C73.6706 67.0303 87.8283 72.7032 96.0664 80.6946L87.5816 109.553C85.0165 107.234 80.1328 105.705 75.4958 105.705C68.787 105.705 64.15 111.378 64.15 119.369V119.271Z" fill="white"/>
<path d="M221.465 173.879V252.412H173.812V242.891C164.785 251.129 152.206 255.52 139.577 255.52C111.015 255.52 88.3236 238.008 88.3236 213.047C88.3236 188.086 113.58 168.749 145.744 168.749C154.475 168.749 164.292 170.82 173.812 174.668V173.879C173.812 160.757 161.973 153.012 146.533 153.012C133.904 153.012 125.42 156.367 114.32 162.04L99.1268 131.899C117.675 122.625 137.505 116.212 159.901 116.212C193.643 116.212 221.465 137.572 221.465 173.879ZM173.812 212.997V200.369C169.175 198.051 160.444 196.275 152.699 196.275C142.636 196.275 135.434 202.737 135.434 211.715C135.434 220.2 142.142 226.119 151.663 226.119C163.502 226.119 172.776 220.693 173.812 212.997Z" fill="white"/>
<path d="M450.943 167.713V252.708H403.587V176.741C403.587 165.395 395.842 157.403 384.792 157.403C373.742 157.403 365.997 164.852 365.997 175.162V252.659H318.641V176.691C318.641 165.345 310.896 157.354 299.846 157.354C288.796 157.354 281.051 164.803 281.051 175.113V252.363H231.327V119.222H281.051V135.452C287.464 123.612 299.846 116.114 315.582 116.114C332.848 116.114 348.288 124.352 357.315 138.017C365.06 124.648 380.994 116.114 400.578 116.114C428.4 116.114 451.042 137.474 451.042 167.615L450.943 167.713Z" fill="white"/>
<path d="M592.079 173.879V252.412H544.426V242.891C535.399 251.129 522.82 255.52 510.191 255.52C481.629 255.52 458.938 238.008 458.938 213.047C458.938 188.086 484.195 168.749 516.358 168.749C525.089 168.749 534.906 170.82 544.426 174.668V173.879C544.426 160.757 532.587 153.012 517.147 153.012C504.519 153.012 496.034 156.367 484.935 162.04L469.741 131.899C488.289 122.625 508.12 116.212 530.515 116.212C564.257 116.212 592.079 137.572 592.079 173.879ZM544.426 212.997V200.369C539.789 198.051 531.058 196.275 523.313 196.275C513.25 196.275 506.048 202.737 506.048 211.715C506.048 220.2 512.757 226.119 522.277 226.119C534.116 226.119 543.39 220.693 544.426 212.997Z" fill="white"/>
<path d="M755.111 185.717C755.111 226.661 729.855 255.519 694.09 255.519C676.825 255.519 662.174 248.563 651.617 236.724V296.709H601.893V119.27H651.617V134.957C662.174 123.118 676.874 116.162 694.09 116.162C729.904 116.162 755.111 145.02 755.111 185.668V185.717ZM707.755 185.717C707.755 169.241 695.669 157.402 678.404 157.402C662.717 157.402 651.617 169.241 651.617 185.717C651.617 202.193 662.667 214.279 678.404 214.279C695.669 214.279 707.755 202.44 707.755 185.717Z" fill="white"/>
<path d="M913.216 185.717C913.216 226.661 887.959 255.519 852.195 255.519C834.93 255.519 820.279 248.563 809.722 236.724V296.709H760.047V119.27H809.722V134.957C820.279 123.118 834.979 116.162 852.195 116.162C888.009 116.162 913.216 145.02 913.216 185.668V185.717ZM865.81 185.717C865.81 169.241 853.724 157.402 836.459 157.402C820.772 157.402 809.673 169.241 809.673 185.717C809.673 202.193 820.772 214.279 836.459 214.279C853.724 214.279 865.81 202.44 865.81 185.717Z" fill="white"/>
<path d="M981.285 173.09C981.285 173.09 981.088 173.287 980.94 173.337C980.446 173.633 979.805 173.583 979.312 173.238C974.922 170.476 951.885 154.591 936.839 136.043C936 134.958 935.606 134.465 935.606 133.873C935.359 125.191 950.799 115.325 962.589 108.961H962.688C962.688 108.961 963.033 108.863 963.181 108.961C963.329 109.06 963.428 109.208 963.477 109.405C963.477 121.639 966.93 155.183 981.334 170.722C981.976 171.413 981.926 172.498 981.236 173.139L981.285 173.09Z" fill="url(#paint0_linear_8995_89)"/>
<path d="M974.922 96.1344L1009.65 80.5955C1018.53 77.1918 1025.44 70.0883 1028.59 61.2089L1032.93 49.2218C1033.08 48.7285 1032.93 48.2352 1032.59 47.8899C1032.19 47.5446 1031.7 47.4459 1031.21 47.6432L964.908 75.3173L965.154 74.2813C965.499 72.3575 966.683 70.6309 968.41 69.6937C979.657 62.8861 1019.86 42.6116 1019.86 42.6116C1032.64 36.7414 1042.21 25.7408 1046.15 12.4218L1049.21 2.16116C1049.41 1.5692 1049.21 0.927914 1048.72 0.483946C1048.23 0.0893072 1047.58 -0.0586822 1046.99 0.187967C1046.99 0.187967 986.465 23.373 966.979 32.6963C947.543 42.0196 927.614 54.0068 920.708 89.2776C917.896 103.583 923.027 115.669 932.695 129.383C932.646 115.916 967.226 99.8835 974.971 96.1838L974.922 96.1344Z" fill="url(#paint1_linear_8995_89)"/>
<path d="M892.49 38.8126C887.705 34.6196 883.66 34.2743 882.969 34.6196C882.674 33.337 888.445 30.2292 889.185 29.4399C891.504 26.8748 892.835 23.5204 895.598 21.3498C901.172 16.8115 908.078 18.2421 913.899 21.7938C916.859 23.6683 924.949 29.6866 925.097 30.0319C929.734 33.9783 934.026 38.3686 937.972 43.1536C938.268 43.4496 938.416 43.8442 938.416 44.2389C938.416 44.6335 938.318 45.0775 938.071 45.3735C937.528 45.8668 936.344 46.952 934.272 49.0732C920.608 63.2802 916.612 83.6534 915.576 91.0035C915.576 91.1515 915.379 92.4341 915.379 92.4341C915.379 92.4341 908.72 51.8357 892.539 38.8619L892.49 38.8126Z" fill="url(#paint2_linear_8995_89)"/>
<path d="M51.8175 373.174C51.8175 382.004 46.1445 388.17 38.6464 388.17C34.0587 388.17 30.4083 385.901 28.2378 382.152V387.529H24.0941V348.805H28.2378V364.245C30.4083 360.496 34.0587 358.227 38.6464 358.227C46.1939 358.227 51.8175 364.443 51.8175 373.174ZM47.4271 373.174C47.4271 366.564 43.4314 361.927 37.8571 361.927C32.2829 361.927 28.2378 366.564 28.2378 373.174C28.2378 379.784 32.2335 384.471 37.8571 384.471C43.4807 384.471 47.4271 379.784 47.4271 373.174Z" fill="white"/>
<path d="M56.2079 396.557L57.1945 393.005C58.1811 393.498 59.365 393.745 60.5489 393.745C62.3741 393.745 63.6074 393.153 64.6926 391.18L66.3698 387.628L53.8894 358.869H58.4771L68.491 382.695L77.9623 358.869H82.4514L69.379 390.736C67.4058 395.619 64.594 397.445 60.6969 397.494C59.0197 397.494 57.4905 397.149 56.1586 396.557H56.2079Z" fill="white"/>
<mask id="mask0_8995_89" style="mask-type:luminance" maskUnits="userSpaceOnUse" x="99" y="319" width="140" height="71">
<path d="M238.678 319.602H99.8147V389.404H238.678V319.602Z" fill="white"/>
</mask>
<g mask="url(#mask0_8995_89)">
<path d="M99.8147 343.922V332.872H115.699V343.922H130.153V357.142H115.699V368.685C115.699 372.928 118.264 375.295 122.408 375.295C124.628 375.295 128.031 374.654 130.153 373.52V387.529C127.933 388.762 123.888 389.404 120.879 389.404C106.474 389.404 99.8147 380.919 99.8147 369.228V343.922ZM156.1 342.787C141.696 342.787 135.036 351.272 135.036 363.012V388.022H150.92V363.506C150.92 359.263 153.486 356.895 157.629 356.895C159.602 356.895 162.464 357.389 164.585 358.277V344.267C162.316 343.28 158.764 342.787 156.1 342.787ZM169.419 343.922V388.022H185.303V343.922H169.419ZM214.408 342.491C200.645 342.491 190.138 353.097 190.138 365.873C190.138 378.65 200.645 389.354 214.408 389.354C228.171 389.354 238.678 378.748 238.678 365.873C238.678 352.998 228.171 342.491 214.408 342.491ZM214.408 375.641C209.031 375.641 204.69 371.3 204.69 365.923C204.69 360.546 209.031 356.205 214.408 356.205C219.785 356.205 224.126 360.546 224.126 365.923C224.126 371.3 219.785 375.641 214.408 375.641ZM226.74 319.602C221.363 319.602 217.022 323.943 217.022 329.32C217.022 334.697 221.363 339.038 226.74 339.038C232.117 339.038 236.458 334.697 236.458 329.32C236.458 323.943 232.117 319.602 226.74 319.602ZM202.026 319.602C196.649 319.602 192.308 323.943 192.308 329.32C192.308 334.697 196.649 339.038 202.026 339.038C207.403 339.038 211.744 334.697 211.744 329.32C211.744 323.943 207.403 319.602 202.026 319.602ZM177.312 319.602C171.935 319.602 167.594 323.943 167.594 329.32C167.594 334.697 171.935 339.038 177.312 339.038C182.689 339.038 187.03 334.697 187.03 329.32C187.03 323.943 182.689 319.602 177.312 319.602Z" fill="white"/>
<path d="M226.74 339.088C232.117 339.088 236.458 334.747 236.458 329.37C236.458 323.993 232.117 319.652 226.74 319.652C221.363 319.652 217.022 323.993 217.022 329.37C217.022 334.747 221.363 339.088 226.74 339.088Z" fill="#02B377"/>
<path d="M202.075 339.088C207.452 339.088 211.793 334.747 211.793 329.37C211.793 323.993 207.452 319.652 202.075 319.652C196.698 319.652 192.357 323.993 192.357 329.37C192.357 334.747 196.698 339.088 202.075 339.088Z" fill="#CDCFD0"/>
<path d="M177.362 339.088C182.739 339.088 187.08 334.747 187.08 329.37C187.08 323.993 182.739 319.652 177.362 319.652C171.985 319.652 167.644 323.993 167.644 329.37C167.644 334.747 171.985 339.088 177.362 339.088Z" fill="#FF9F00"/>
</g>
<path opacity="0.3" d="M16.4961 295.283H280.115" stroke="#E5E5E5" stroke-width="1.23325" stroke-miterlimit="10"/>
<defs>
<linearGradient id="paint0_linear_8995_89" x1="958.741" y1="-0.00819733" x2="958.741" y2="173.534" gradientUnits="userSpaceOnUse">
<stop stop-color="#F9A228"/>
<stop offset="1" stop-color="#F68921"/>
</linearGradient>
<linearGradient id="paint1_linear_8995_89" x1="984.59" y1="-0.00935242" x2="984.59" y2="173.533" gradientUnits="userSpaceOnUse">
<stop stop-color="#F9A228"/>
<stop offset="1" stop-color="#F68921"/>
</linearGradient>
<linearGradient id="paint2_linear_8995_89" x1="910.643" y1="-0.00995655" x2="910.643" y2="173.532" gradientUnits="userSpaceOnUse">
<stop stop-color="#F9A228"/>
<stop offset="1" stop-color="#F68921"/>
</linearGradient>
</defs>
</svg>
