<svg xmlns="http://www.w3.org/2000/svg" width="98.997" height="25.942" viewBox="0 0 98.997 25.942">
  <g id="Group_8192" data-name="Group 8192" transform="translate(10791.373 -966)">
    <g id="Group_5859" data-name="Group 5859" transform="translate(709 64.971)">
      <g id="Group_5857" data-name="Group 5857" transform="translate(-11500.373 901.029)">
        <path id="Path_7" data-name="Path 7" d="M48.8,36.176c.063,0,.127,0,.221,0,.063,0,.125,0,.189,0,3.23,0,7-1.192,7-4.554,0-3.012-3.3-6.833-7-6.833-.064,0-.126,0-.221,0-.062,0-.126,0-.189,0-3.706,0-7,3.821-7,6.833C41.8,34.984,45.569,36.176,48.8,36.176Z" transform="translate(-35.488 -24.79)" fill="#00bd71"/>
        <path id="Path_8" data-name="Path 8" d="M35.693,58.11c1.069-.5,2.116-1.077,3.189-1.614a84.6,84.6,0,0,1,9.37-4.38,3.911,3.911,0,0,0,2.091-1.447,2.544,2.544,0,0,0,.151-1.825,1.221,1.221,0,0,0-.731-.941,1.159,1.159,0,0,0-.886.2c-4.535,2.77-9.614,3.7-14.644,1.662a5.192,5.192,0,0,0-5.14.927A6.89,6.89,0,0,0,26.773,55.5a3.878,3.878,0,0,0,.5,2.45,3.951,3.951,0,0,0,3.24,1.428A11.33,11.33,0,0,0,35.693,58.11Z" transform="translate(-26.756 -38.194)" fill="#00bd71"/>
        <path id="Path_9" data-name="Path 9" d="M54.41,62.717c-2.068-2.909-5.455-1.556-8.006-.213-5.032,2.649-10.473,6.566-16.466,5.686-.25-.036-.327.341-.238.578a2.857,2.857,0,0,0,1.642,1.4c4.357,1.949,9.346,1.726,14.1,1.254a23.283,23.283,0,0,0,4.546-.78A8.633,8.633,0,0,0,53.9,68.3a5.137,5.137,0,0,0,1.059-1.726A4.315,4.315,0,0,0,54.41,62.717Z" transform="translate(-28.444 -45.807)" fill="#00bd71"/>
      </g>
    </g>
    <g id="Group_5861" data-name="Group 5861" transform="translate(-10755.531 974)">
      <g id="Group_1532" data-name="Group 1532">
        <path id="Path_3573" data-name="Path 3573" d="M340.793,117.227c0-2.187,2.156-3.106,7.09-3.168h.207v-.49a2.683,2.683,0,0,0-3.006-2.861,3.534,3.534,0,0,0-3.338,1.839.6.6,0,0,1-.56-.572,1.647,1.647,0,0,1,.56-.94,4.715,4.715,0,0,1,3.4-1.226c2.446,0,3.918,1.41,3.918,3.74v6.09a.565.565,0,0,1-.352.1c-.332,0-.622-.184-.622-.981v-1a4.273,4.273,0,0,1-3.9,2.125C342.1,119.884,340.793,118.842,340.793,117.227Zm7.3-1.43v-.961h-.27c-4.271.082-6.012.756-6.012,2.391,0,1.144.954,1.839,2.467,1.839A3.534,3.534,0,0,0,348.09,115.8Z" transform="translate(-340.793 -109.809)" fill="#063E3B" stroke="#063E3B" stroke-width="0.5"/>
        <path id="Path_3574" data-name="Path 3574" d="M453.9,120.633l-3.773-9.155c0-.2.809-.715,1.223.368l3.255,8.195,3.275-8.195c.415-1.083,1.182-.552,1.182-.368l-3.752,9.135c-.1.266-.228.409-.726.409C454.062,121.021,454,120.9,453.9,120.633Z" transform="translate(-439.833 -111.048)" fill="#063E3B" stroke="#063E3B" stroke-width="0.5"/>
        <path id="Path_3575" data-name="Path 3575" d="M561.261,117.227c0-2.187,2.156-3.106,7.09-3.168h.207v-.49a2.683,2.683,0,0,0-3.006-2.861,3.534,3.534,0,0,0-3.338,1.839.6.6,0,0,1-.56-.572,1.647,1.647,0,0,1,.56-.94,4.715,4.715,0,0,1,3.4-1.226c2.446,0,3.918,1.41,3.918,3.74v6.09a.565.565,0,0,1-.352.1c-.332,0-.622-.184-.622-.981v-1a4.273,4.273,0,0,1-3.9,2.125C562.567,119.884,561.261,118.842,561.261,117.227Zm7.3-1.43v-.961h-.269c-4.271.082-6.012.756-6.012,2.391,0,1.144.954,1.839,2.467,1.839A3.534,3.534,0,0,0,568.558,115.8Z" transform="translate(-540.51 -109.809)" fill="#063E3B" stroke="#063E3B" stroke-width="0.5"/>
        <path id="Path_3576" data-name="Path 3576" d="M681.121,117.227c0-2.187,2.156-3.106,7.09-3.168h.207v-.49a2.683,2.683,0,0,0-3.006-2.861,3.534,3.534,0,0,0-3.338,1.839.6.6,0,0,1-.56-.572,1.647,1.647,0,0,1,.56-.94,4.715,4.715,0,0,1,3.4-1.226c2.446,0,3.918,1.41,3.918,3.74v6.09a.565.565,0,0,1-.352.1c-.332,0-.622-.184-.622-.981v-1a4.273,4.273,0,0,1-3.9,2.125C682.427,119.884,681.121,118.842,681.121,117.227Zm7.3-1.43v-.961h-.27c-4.271.082-6.012.756-6.012,2.391,0,1.144.954,1.839,2.467,1.839A3.534,3.534,0,0,0,688.418,115.8Z" transform="translate(-649.089 -109.809)" fill="#063E3B" stroke="#063E3B" stroke-width="0.5"/>
        <path id="Path_3577" data-name="Path 3577" d="M803.164,119.271v-9.217a.482.482,0,0,1,.332-.1c.352,0,.643.184.643.981v.879a3.938,3.938,0,0,1,3.524-2c2.612,0,3.939,1.717,3.939,4.312v5.15c0,.368-.187.47-.435.47h-.124c-.249,0-.435-.1-.435-.47v-5.089c0-2.125-1.057-3.454-2.985-3.454a3.665,3.665,0,0,0-3.462,2.248v6.294c0,.368-.187.47-.435.47H803.6C803.351,119.741,803.164,119.639,803.164,119.271Z" transform="translate(-759.645 -109.809)" fill="#063E3B" stroke="#063E3B" stroke-width="0.5"/>
        <path id="Path_3578" data-name="Path 3578" d="M921.26,117.227c0-2.187,2.156-3.106,7.09-3.168h.207v-.49a2.683,2.683,0,0,0-3.006-2.861,3.534,3.534,0,0,0-3.338,1.839.6.6,0,0,1-.56-.572,1.647,1.647,0,0,1,.56-.94,4.715,4.715,0,0,1,3.4-1.226c2.446,0,3.918,1.41,3.918,3.74v6.09a.565.565,0,0,1-.352.1c-.332,0-.622-.184-.622-.981v-1a4.273,4.273,0,0,1-3.9,2.125C922.566,119.884,921.26,118.842,921.26,117.227Zm7.3-1.43v-.961h-.269c-4.271.082-6.012.756-6.012,2.391,0,1.144.954,1.839,2.467,1.839A3.534,3.534,0,0,0,928.557,115.8Z" transform="translate(-866.626 -109.809)" fill="#063E3B" stroke="#063E3B" stroke-width="0.5"/>
      </g>
    </g>
  </g>
</svg>
